#!OML:ASF G:\acrobat\cartwheel_test\acrobat_wednesday\Session 1\acrobatwednesday.ASF
:FULLY-SPECIFIED
:DEGREES
150
root 9.59865 19.0016 -0.270528 -6.28097 95.3236 228.412
lowerback -10.3448 6.78093 3.59407
upperback 8.12721 8.84339 -2.81625
thorax 16.0221 4.60174 -3.02318
lowerneck -17.4671 -8.62037 2.38501
upperneck 6.54968 -12.4387 2.22407
head 4.75019 -5.9789 -0.792044
rclavicle -2.22639e-014 -4.77083e-014
rhumerus 9.56728 -16.3137 -85.6019
rradius 49.7459
rwrist 333.686
rhand -14.7387 371.546
rfingers 7.12502
rthumb 11.4167 -378.123
lclavicle -2.22639e-014 -4.77083e-014
lhumerus -154.553 216.186 -104.825
lradius 43.4552
lwrist 52.6622
lhand -13.3293 345.454
lfingers 7.12502
lthumb 12.7757 375.043
rfemur -140.712 0.364488 29.0598
rtibia 77.9085
rfoot 370.2 13.83
rtoes 58.8715
lfemur -133.695 -2.49884 -28.6001
ltibia 84.602
lfoot 10.4085 -56.077
ltoes 36.6837
151
root 8.78988 18.0881 -0.299835 -1.78382 96.7764 238.482
lowerback -11.7984 5.47035 4.08306
upperback 6.49295 7.0294 -3.37022
thorax 14.8999 3.84908 -4.32699
lowerneck -17.8158 -8.0263 0.292448
upperneck 12.1526 -11.4254 3.38648
head 6.79513 -5.21877 -0.210427
rclavicle -1.46306e-013 -2.8625e-014
rhumerus 7.64734 -15.5172 -85.5624
rradius 48.6389
rwrist 339.022
rhand -21.0071 366.207
rfingers 7.12502
rthumb 5.36752 -383.705
lclavicle -1.46306e-013 -2.8625e-014
lhumerus -153.96 212.89 -104.204
lradius 38.179
lwrist 46.3676
lhand -16.9347 345.516
lfingers 7.12502
lthumb 9.29839 375.291
rfemur -135.846 -5.31585 23.5973
rtibia 63.9466
rfoot 339.359 20.345
rtoes -28.927
lfemur -131.523 -4.45541 -26.7097
ltibia 67.1256
lfoot -1.57317 6.83916
ltoes 23.714
152
root 8.01275 16.9747 -0.308699 -2.88094 96.9465 242.548
lowerback -14.4269 4.61475 2.9751
upperback 4.68824 6.03427 -3.52309
thorax 14.1194 3.25295 -4.01405
lowerneck -17.7309 -7.32992 -1.62844
upperneck 17.1483 -10.254 4.16629
head 8.57063 -4.47674 0.372756
rclavicle -1.46306e-013 -1.08139e-013
rhumerus 7.03561 -15.2559 -85.854
rradius 44.7894
rwrist 341.904
rhand -27.1163 361.934
rfingers 7.12502
rthumb -0.532432 -388.045
lclavicle -1.46306e-013 -1.08139e-013
lhumerus -156.727 209.119 -102.721
lradius 35.2088
lwrist 42.7992
lhand -17.1531 344.334
lfingers 7.12502
lthumb 9.08763 374.118
rfemur -131.467 -11.6421 14.6388
rtibia 51.5151
rfoot 322.113 30.4726
rtoes 53.6976
lfemur -129.365 -4.57851 -25.5281
ltibia 53.5766
lfoot -15.0409 -0.0153164
ltoes 18.308
153
root 7.38865 15.7583 -0.334591 -4.47483 97.3894 250.282
lowerback -12.8577 3.62176 2.53073
upperback 4.20343 4.76084 -3.18556
thorax 12.3718 2.59201 -3.81148
lowerneck -18.6962 -6.76462 -2.55745
upperneck 23.1663 -9.08243 3.29698
head 10.8368 -3.85305 0.278382
rclavicle -1.52667e-013 -4.6118e-014
rhumerus 5.36312 -13.7696 -84.6561
rradius 40.4605
rwrist 344.457
rhand -31.8276 362.526
rfingers 7.12502
rthumb -5.08223 -387.393
lclavicle -1.52667e-013 -4.6118e-014
lhumerus -158.788 204.957 -101.344
lradius 31.7406
lwrist 38.7199
lhand -18.6034 343.3
lfingers 7.12502
lthumb 7.68797 373.14
rfemur -127.83 -7.19622 18.5476
rtibia 54.6534
rfoot 323.659 32.114
rtoes 68.0428
lfemur -124.298 -3.35631 -22.0738
ltibia 51.6596
lfoot -19.2745 -8.06556
ltoes 19.5291
154
root 6.70203 14.5806 -0.41155 -3.98445 99.7373 258.628
lowerback -12.4778 2.01928 2.1435
upperback 3.42566 2.63289 -2.73384
thorax 10.9935 1.51484 -3.60988
lowerneck -21.0532 -6.40733 -4.70537
upperneck 30.5636 -8.00944 4.01284
head 14.4107 -3.21719 0.992058
rclavicle -1.27222e-014 1.59028e-014
rhumerus 4.95884 -13.0215 -83.6695
rradius 35.6315
rwrist 349.165
rhand -34.5044 363.258
rfingers 7.12502
rthumb -7.66645 -386.583
lclavicle -1.27222e-014 1.59028e-014
lhumerus -160.063 199.73 -99.8737
lradius 27.8454
lwrist 33.5685
lhand -19.863 339.203
lfingers 7.12502
lthumb 6.47209 369.084
rfemur -128.327 -6.67646 21.7277
rtibia 64.5951
rfoot 344.706 45.2456
rtoes 76.986
lfemur -123.326 -7.67144 -23.5806
ltibia 63.0723
lfoot -16.2387 -1.06154
ltoes 37.0122
155
root 6.01662 13.679 -0.412063 -3.61041 98.5404 272.074
lowerback -3.5817 1.0047 1.78381
upperback 4.26867 1.30146 -0.820555
thorax 6.51129 0.760315 -1.73458
lowerneck -22.2257 -5.15108 -4.37131
upperneck 32.6539 -5.164 0.90456
head 15.3362 -2.35918 0.186183
rclavicle -6.52014e-014 -5.77469e-014
rhumerus 7.24526 -11.0758 -82.1879
rradius 31.195
rwrist 355.641
rhand -35.913 363.098
rfingers 7.12502
rthumb -9.02582 -386.689
lclavicle -6.52014e-014 -5.77469e-014
lhumerus -160.194 191.151 -96.9777
lradius 24.6245
lwrist 27.3747
lhand -22.6743 338.415
lfingers 7.12502
lthumb 3.7576 368.361
rfemur -125.035 -4.08546 21.7419
rtibia 79.5827
rfoot 321.508 40.0079
rtoes 69.3931
lfemur -118.709 -7.26314 -22.1691
ltibia 76.8911
lfoot 4.42566 -0.974637
ltoes 18.5498
156
root 5.58074 13.0944 -0.396336 -4.37499 99.701 277.515
lowerback -1.312 -0.428404 1.12713
upperback 5.78593 -0.505556 -0.144681
thorax 6.73726 -0.138881 -0.812482
lowerneck -26.5577 -4.19158 -5.3526
upperneck 31.6852 -3.54468 1.25929
head 15.834 -1.79433 0.745637
rclavicle 5.725e-014 2.90101e-014
rhumerus 15.1283 -10.344 -82.5346
rradius 27.135
rwrist 363.157
rhand -37.0576 361.018
rfingers 7.12502
rthumb -10.1303 -388.718
lclavicle 5.725e-014 2.90101e-014
lhumerus -155.912 185.743 -97.4474
lradius 23.9358
lwrist 26.1607
lhand -25.3448 336.514
lfingers 7.12502
lthumb 1.17858 366.491
rfemur -128.199 -4.12285 22.0508
rtibia 88.4142
rfoot 226.204 23.2157
rtoes 49.2559
lfemur -122.517 -9.72798 -23.0557
ltibia 89.1062
lfoot 69.5956 -39.9323
ltoes -9.39132
157
root 5.18456 12.6432 -0.347497 -6.84111 99.9224 281.161
lowerback -0.0190947 -0.567933 0.500342
upperback 7.37106 -0.555305 -0.271143
thorax 7.69474 -0.149862 -0.58995
lowerneck -25.137 -3.62309 -4.86887
upperneck 27.5551 -3.53706 2.17225
head 13.6774 -1.64629 1.03642
rclavicle 7.95139e-015 1.00585e-013
rhumerus 19.4185 -13.0119 -83.6688
rradius 25.4969
rwrist 373.088
rhand -36.666 358.266
rfingers 7.12502
rthumb -9.75241 -391.488
lclavicle 7.95139e-015 1.00585e-013
lhumerus -154.078 185.544 -98.7464
lradius 24.6795
lwrist 28.1623
lhand -30.4493 340.422
lfingers 7.12502
lthumb -3.75139 370.369
rfemur -129.236 -3.14167 22.4512
rtibia 79.9588
rfoot 154 -13.4749
rtoes 22.2847
lfemur -123.137 -9.80375 -24.496
ltibia 86.6746
lfoot 150.986 -41.9595
ltoes -7.087
158
root 4.85397 12.409 -0.243543 8.19009 99.1297 301.272
lowerback 0.81267 -0.310169 1.99904
upperback 9.14399 -0.213544 0.655851
thorax 9.16096 0.146251 -0.417224
lowerneck -23.0744 -3.40571 -4.94185
upperneck 22.3201 -3.60735 2.85904
head 11.21 -1.64442 1.28817
rclavicle -2.38542e-014 -3.598e-014
rhumerus 25.6387 -20.1776 -88.3233
rradius 19.0796
rwrist 386.792
rhand -38.006 358.049
rfingers 7.12502
rthumb -11.0451 -391.641
lclavicle -2.38542e-014 -3.598e-014
lhumerus -152.059 183.387 -98.1929
lradius 21.2419
lwrist 25.606
lhand -29.1804 337.811
lfingers 7.12502
lthumb -2.52596 367.775
rfemur -127.279 -0.96961 25.1446
rtibia 77.7957
rfoot 154.535 -16.1707
rtoes 11.1327
lfemur -122.335 -7.33791 -23.6313
ltibia 79.4902
lfoot 196.674 -1.9962
ltoes -20.1093
159
root 4.55183 12.347 -0.179904 3.59314 99.4694 299.271
lowerback 0.507298 -0.336943 0.598486
upperback 8.99212 -0.19786 0.588875
thorax 9.17481 0.0439534 0.293688
lowerneck -24.0555 -3.69907 -5.70348
upperneck 27.4714 -3.78165 3.49374
head 13.4848 -1.6559 1.66613
rclavicle -2.06736e-014 -2.64384e-014
rhumerus 23.2641 -17.8607 -85.3582
rradius 17.839
rwrist 382.393
rhand -42.3562 359.536
rfingers 7.12502
rthumb -15.2383 -389.883
lclavicle -2.06736e-014 -2.64384e-014
lhumerus -153.149 184.85 -98.6211
lradius 18.9776
lwrist 22.9317
lhand -29.2099 338.308
lfingers 7.12502
lthumb -2.55444 368.272
rfemur -125.744 -1.56176 24.9711
rtibia 78.0869
rfoot 159.272 -16.4523
rtoes -13.2307
lfemur -120.666 -6.91444 -25.4462
ltibia 79.7791
lfoot 194.477 -4.74061
ltoes -23.2407
160
root 4.25272 12.4436 -0.12935 2.67293 100.705 300.263
lowerback 0.649222 -0.560952 0.308116
upperback 8.70426 -0.486638 0.531037
thorax 8.77377 -0.119592 0.372899
lowerneck -24.9886 -4.14355 -5.46137
upperneck 30.6831 -4.15548 2.9092
head 15.0914 -1.82562 1.34961
rclavicle 6.67916e-014 8.0309e-014
rhumerus 20.9804 -17.2567 -84.5076
rradius 17.8763
rwrist 381.955
rhand -45.6235 365.263
rfingers 7.12502
rthumb -18.3836 -383.888
lclavicle 6.67916e-014 8.0309e-014
lhumerus -155.178 185.66 -98.0611
lradius 19.1929
lwrist 20.0834
lhand -30.2198 337.852
lfingers 7.12502
lthumb -3.52973 367.803
rfemur -123.492 -3.24692 25.4579
rtibia 81.981
rfoot 186.989 9.94489
rtoes -20.9349
lfemur -118.326 -7.28796 -26.4686
ltibia 84.8654
lfoot 227.896 27.3176
ltoes -14.5549
161
root 3.97269 12.701 -0.0612818 1.79182 101.813 301.026
lowerback 1.55325 -0.764716 0.135563
upperback 8.30366 -0.744024 0.379365
thorax 7.80489 -0.254724 0.299458
lowerneck -25.5674 -4.35841 -5.21328
upperneck 32.327 -4.30688 2.47126
head 15.9837 -1.89298 1.10393
rclavicle 4.77083e-015 -6.12257e-014
rhumerus 17.8037 -15.5411 -83.5035
rradius 18.8379
rwrist 380.956
rhand -49.4047 372.677
rfingers 7.12502
rthumb -22.0176 -376.09
lclavicle 4.77083e-015 -6.12257e-014
lhumerus -157.531 185.361 -96.7388
lradius 20.078
lwrist 18.9539
lhand -30.2201 337.38
lfingers 7.12502
lthumb -3.53004 367.33
rfemur -120.567 -4.61242 25.6654
rtibia 87.2046
rfoot 216.801 39.2797
rtoes -25.5762
lfemur -115.227 -7.53661 -27.7427
ltibia 90.1055
lfoot 281.315 43.4961
ltoes -20.4548
162
root 3.70167 13.0942 0.0208018 1.40743 102.891 302
lowerback 3.40348 -0.985795 0.109614
upperback 7.48202 -1.04634 0.288259
thorax 5.85193 -0.412342 0.23125
lowerneck -25.0562 -4.35052 -5.23432
upperneck 32.3487 -4.22128 2.28467
head 15.8694 -1.88483 1.05381
rclavicle -6.52014e-014 -2.8625e-014
rhumerus 13.7263 -14.028 -82.9427
rradius 21.3526
rwrist 379.771
rhand -53.0288 386.013
rfingers 7.12502
rthumb -25.4934 -362.302
lclavicle -6.52014e-014 -2.8625e-014
lhumerus -161.153 184.64 -95.4181
lradius 22.1886
lwrist 20.2769
lhand -30.3512 336.612
lfingers 7.12502
lthumb -3.6566 366.561
rfemur -117.362 -5.88993 25.0368
rtibia 88.4061
rfoot 261.615 53.3756
rtoes -22.6896
lfemur -111.961 -8.03792 -28.3274
ltibia 87.8436
lfoot 338.049 32.3285
ltoes -21.903
163
root 3.44445 13.582 0.0992479 1.51038 104.034 303.235
lowerback 4.16161 -1.1996 0.297518
upperback 7.54093 -1.30464 0.286481
thorax 5.48043 -0.521977 0.133583
lowerneck -24.7574 -4.29653 -5.47757
upperneck 31.0841 -4.21138 2.53591
head 15.2195 -1.89264 1.19423
rclavicle -3.02153e-014 -5.92378e-014
rhumerus 11.5663 -14.9017 -83.4744
rradius 23.9629
rwrist 380.119
rhand -53.8286 400.548
rfingers 7.12502
rthumb -26.2592 -347.655
lclavicle -3.02153e-014 -5.92378e-014
lhumerus -163.384 183.775 -94.4734
lradius 24.0617
lwrist 22.0434
lhand -30.5264 336.269
lfingers 7.12502
lthumb -3.82582 366.215
rfemur -113.808 -7.42817 23.6158
rtibia 83.1695
rfoot 310.239 41.0649
rtoes -13.6476
lfemur -108.111 -8.61638 -28.7379
ltibia 79.7083
lfoot 372.975 3.49127
ltoes -25.9333
164
root 3.20127 14.1466 0.177275 1.05104 105.129 304.033
lowerback 5.35887 -1.4848 0.43957
upperback 7.68086 -1.63807 0.32318
thorax 4.95084 -0.668416 0.116467
lowerneck -24.273 -4.10857 -5.01257
upperneck 29.5219 -3.9693 1.81181
head 14.3624 -1.86337 0.858594
rclavicle 3.65764e-014 -1.43125e-014
rhumerus 9.89596 -15.6366 -83.865
rradius 24.5776
rwrist 377.271
rhand -37.327 360.812
rfingers 7.12502
rthumb -10.3901 -388.911
lclavicle 3.65764e-014 -1.43125e-014
lhumerus -164.437 181.121 -92.975
lradius 22.9917
lwrist 21.1608
lhand -30.6178 335.945
lfingers 7.12502
lthumb -3.91408 365.889
rfemur -109.09 -9.1522 21.7741
rtibia 74.2185
rfoot 340.068 17.0945
rtoes -1.43567
lfemur -103.285 -9.08686 -29.2161
ltibia 71.2511
lfoot 369.415 1.65499
ltoes -24.792
